<svg width="125" height="304" viewBox="0 0 125 304" fill="none" xmlns="http://www.w3.org/2000/svg">
<g filter="url(#filter0_d_2_53)">
<path d="M28.2341 218.668L59.7384 210.421L91.2428 218.668L78.1159 290.723C63.1585 296.854 54.7427 296.778 39.6107 290.723L28.2341 218.668Z" fill="#E0BDBD"/>
<path d="M26.9586 215.997H91.2427L88.5888 237.932H29.9074L26.9586 215.997Z" fill="#DD9F9F"/>
<ellipse cx="59.1007" cy="215.811" rx="32.1421" ry="7.24948" fill="#DD9F9F"/>
<ellipse cx="59.866" cy="216.741" rx="29.336" ry="6.32006" fill="#654E2C"/>
<path d="M68.1987 161.259C66.0075 188.507 73.4988 213.031 71.0415 218.091C55.267 228.99 63.5914 193.047 63.5914 163.595C63.5914 134.142 73.5917 97.0315 75.3729 97.0315C77.1541 97.0315 70.7655 129.34 68.1987 161.259Z" fill="#B7AE98"/>
<path d="M50.9259 159.374C50.9259 198.699 67.8025 227.248 47.7615 218.503C43.8779 218.503 44.2455 180.794 44.2455 141.469C44.2455 102.144 40.3619 70.2642 44.2455 70.2642C48.1292 70.2642 47.0583 121.482 50.9259 159.374Z" fill="#B7AE98"/>
<path d="M50.9406 159.86C51.5339 199.704 64.8448 220.289 53.2273 220.406C53.2273 220.406 48.2591 183.794 48.2591 143.688C48.2591 103.582 45.2886 72.092 45.7082 71.9371C46.1278 71.7823 48.0733 101.245 50.9406 159.86Z" fill="#847348"/>
<path d="M66.7536 165.623C66.3671 218.54 70.9202 223.804 62.6296 219.157C62.6296 219.157 59.8236 224.734 62.6296 183.653C62.6296 119.709 74.6615 96.8456 74.6615 96.8456C74.6615 96.8456 66.9626 136.997 66.7536 165.623Z" fill="#847348"/>
<path d="M87.3339 113.412C75.021 110.501 74.4463 100.05 74.8185 96.7061C73.5978 96.4175 76.9685 106.63 89.2814 109.541C101.594 112.452 104.762 135.987 105.507 136.163C105.134 139.507 99.6468 116.323 87.3339 113.412Z" fill="#536B3F"/>
<path d="M90.3317 77.9757C84.2303 99.2067 76.914 98.1732 74.7588 96.8578C74.1539 98.9627 82.2427 94.9986 88.3441 73.7675C94.4455 52.5365 111.548 51.5462 111.917 50.2627C114.072 51.5781 96.433 56.7446 90.3317 77.9757Z" fill="#536B3F"/>
<path d="M70.8967 71.0242C62.6049 51.4334 67.4413 43.3662 69.43 41.5785C68.6079 39.6362 66.1097 51.5285 74.4015 71.1193C82.6932 90.7101 73.2878 111.551 73.7891 112.736C71.8004 114.523 79.1884 90.615 70.8967 71.0242Z" fill="#536B3F"/>
<path d="M93.1133 83.9906C81.9334 102.693 75.4612 99.0005 73.8193 96.916C72.7109 98.7702 81.2031 97.818 92.383 79.1153C103.563 60.4127 119.584 65.6866 120.26 64.556C121.902 66.6405 104.293 65.288 93.1133 83.9906Z" fill="#6C9150"/>
<path d="M63.2187 102.811C73.7955 90.3863 79.1941 95.8083 80.5064 98.1809C81.555 96.9491 74.1822 94.8717 63.6054 107.296C53.0287 119.721 39.4721 109.659 38.8327 110.411C37.5204 108.038 52.6419 115.236 63.2187 102.811Z" fill="#6C9150"/>
<path d="M32.1912 63.1328C49.2053 62.4801 51.7175 71.9247 51.7748 75.0971C53.4616 75.0324 47.2357 66.5619 30.2216 67.2146C13.2075 67.8673 5.03465 47.1043 4.00608 47.1438C3.94878 43.9713 15.1771 63.7855 32.1912 63.1328Z" fill="#6C9150"/>
<path d="M37.8195 71.7232C48.8696 52.8573 55.3669 56.4549 57.0232 58.5153C58.1187 56.6448 49.6335 57.7216 38.5835 76.5875C27.5334 95.4533 11.4767 90.4148 10.8087 91.5553C9.15251 89.495 26.7695 90.589 37.8195 71.7232Z" fill="#6C9150"/>
<path d="M39.7606 46.6042C48.1472 63.1193 45.6031 69.3788 44.3728 70.7057C45.2043 72.3431 45.5881 62.8119 37.2014 46.2968C28.8147 29.7816 33.1418 13.4079 32.6348 12.4095C33.8651 11.0826 31.3739 30.0891 39.7606 46.6042Z" fill="#6C9150"/>
<path d="M85.5469 78.3031C79.6365 99.2938 74.2401 99.4395 72.715 98.5275C72.129 100.609 78.4212 95.6236 84.3317 74.6329C90.2421 53.6422 99.2462 38.5483 99.6035 37.2794C101.129 38.1914 91.4574 57.3124 85.5469 78.3031Z" fill="#6C9150"/>
<path d="M90.1333 102.966C77.2345 105.402 74.8238 98.5762 74.612 96.1936C73.3332 96.4351 78.5152 102.103 91.414 99.6671C104.313 97.2315 115.648 101.554 116.428 101.407C116.64 103.79 103.032 100.531 90.1333 102.966Z" fill="#6C9150"/>
<path d="M62.467 74.7353C53.6434 63.1333 56.7523 54.5556 58.1905 52.2324C57.3157 51.0822 56.5173 61.5939 65.341 73.1959C74.1646 84.7978 77.6953 100.683 78.2287 101.385C76.7905 103.708 71.2906 86.3372 62.467 74.7353Z" fill="#6C9150"/>
<path d="M45.9154 46.9875C48.9725 65.4119 44.5773 69.643 42.975 70.2077C43.2781 72.0343 46.5835 63.9133 43.5264 45.4889C40.4694 27.0646 42.1915 10.1736 42.0067 9.05982C43.6091 8.49513 42.8583 28.5631 45.9154 46.9875Z" fill="#6C9150"/>
<path d="M56.2122 81.068C43.8993 78.1571 43.3246 67.7064 43.6968 64.3623C42.4761 64.0737 45.8468 74.2862 58.1597 77.1972C70.4726 80.1081 73.6406 103.643 74.385 103.819C74.0128 107.163 68.5252 83.9789 56.2122 81.068Z" fill="#6C9150"/>
<path d="M59.21 45.6318C53.1086 66.8629 45.7923 65.8294 43.6371 64.5139C43.0322 66.6189 51.1211 62.6548 57.2225 41.4237C63.3238 20.1926 80.4267 19.2023 80.7955 17.9188C82.9507 19.2343 65.3114 24.4008 59.21 45.6318Z" fill="#6C9150"/>
<path d="M61.9916 51.6468C50.8117 70.3495 44.3396 66.6567 42.6977 64.5721C41.5893 66.4264 50.0814 65.4742 61.2613 46.7715C72.4412 28.0689 88.4622 33.3428 89.1381 32.2121C90.78 34.2967 73.1715 32.9441 61.9916 51.6468Z" fill="#6C9150"/>
<path d="M59.0116 70.6224C46.1128 73.058 43.7022 66.2324 43.4903 63.8498C42.2115 64.0913 47.3935 69.7589 60.2923 67.3233C73.1911 64.8877 84.5268 69.2104 85.3065 69.0632C85.5184 71.4457 71.9104 68.1867 59.0116 70.6224Z" fill="#6C9150"/>
<path d="M57.2218 76.8291C44.8125 78.6772 42.3956 68.8025 42.1593 65.4322C40.929 65.6154 46.0036 74.2022 58.4128 72.3541C70.8221 70.5059 78.0745 92.0348 78.8247 91.9231C79.061 95.2934 69.631 74.9809 57.2218 76.8291Z" fill="#536B3F"/>
<path d="M53.8033 41.4739C51.6937 64.2856 44.4442 66.0561 42.1286 65.6013C41.9195 67.8629 49.0247 60.9739 51.1342 38.1622C53.2437 15.3505 69.5835 7.92236 69.711 6.54331C72.0267 6.99813 55.9128 18.6622 53.8033 41.4739Z" fill="#536B3F"/>
<path d="M57.5611 46.23C50.0968 68.5217 43.1887 67.4047 41.2318 66.013C40.4917 68.223 48.523 64.09 55.9873 41.7983C63.4516 19.5065 79.8628 18.5371 80.314 17.1895C82.271 18.5813 65.0254 23.9383 57.5611 46.23Z" fill="#536B3F"/>
<path d="M58.0641 65.6824C46.0416 72.9155 42.4976 67.2362 41.8686 65.0155C40.6766 65.7326 46.6907 69.2449 58.7131 62.0119C70.7356 54.7788 82.4526 54.6638 83.1794 54.2265C83.8085 56.4472 70.0866 58.4493 58.0641 65.6824Z" fill="#536B3F"/>
<path d="M69.4365 113.231C77.4222 107.332 76.1065 97.9046 75.3032 95.0377C76.095 94.4529 75.4501 104.422 67.4645 110.321C59.4788 116.219 61.154 137.954 60.6713 138.311C61.4745 141.178 61.4508 119.129 69.4365 113.231Z" fill="#536B3F"/>
<path d="M61.5756 82.5965C69.2442 99.7911 74.1033 96.9038 75.3691 95.1562C76.1294 96.8609 69.9214 95.5221 62.2527 78.3275C54.5841 61.1329 42.6679 64.86 42.2043 63.8205C40.9385 65.5681 53.907 65.4019 61.5756 82.5965Z" fill="#536B3F"/>
<path d="M60.6485 88.6824C71.3935 102.266 75.2371 97.2466 76.0243 94.9549C77.0896 96.3016 71.0974 97.7437 60.3524 84.1601C49.6074 70.5765 39.4601 79.5704 38.8105 78.7492C38.0233 81.0409 49.9035 75.0989 60.6485 88.6824Z" fill="#536B3F"/>
<path d="M65.8027 104.716C75.0663 103.404 75.6057 96.6985 75.3613 94.5275C76.2797 94.3973 73.646 100.822 64.3825 102.134C55.119 103.447 48.036 110.335 47.476 110.414C47.7205 112.585 56.5392 106.029 65.8027 104.716Z" fill="#536B3F"/>
<path d="M33.9848 78.6966C44.3906 77.0258 45.4117 66.9101 45.2753 63.6208C46.307 63.4551 42.9696 73.0752 32.5638 74.746C22.158 76.4168 18.2978 99.0205 17.6687 99.1215C17.8051 102.411 23.579 80.3674 33.9848 78.6966Z" fill="#536B3F"/>
<path d="M33.3277 43.9298C37.307 65.1661 43.454 64.8507 45.3172 63.774C45.7117 65.8794 39.1808 61.2586 35.2015 40.0222C31.2221 18.7859 17.0297 16.2083 16.7891 14.9245C14.9259 16.0013 29.3484 22.6934 33.3277 43.9298Z" fill="#536B3F"/>
<path d="M30.6988 49.5206C39.039 68.7757 44.6209 65.7929 46.0966 63.9193C46.9234 65.8283 39.9003 64.1003 31.5601 44.8452C23.22 25.5902 9.60325 29.2106 9.09906 28.0465C7.62341 29.9202 22.3587 30.2655 30.6988 49.5206Z" fill="#536B3F"/>
<path d="M32.1956 68.2675C42.8118 71.8549 45.1738 65.4401 45.4739 63.1416C46.5264 63.4972 41.9164 68.5236 31.3002 64.9362C20.6841 61.3489 11.0189 64.4858 10.3771 64.2689C10.077 66.5675 21.5794 64.6802 32.1956 68.2675Z" fill="#536B3F"/>
<path d="M80.9674 74.5508C82.1905 94.5237 75.8402 98.1184 73.6712 98.4006C73.7925 100.381 79.3066 92.4827 78.0834 72.5098C76.8603 52.537 81.6255 35.107 81.5516 33.8995C83.7205 33.6174 79.7442 54.578 80.9674 74.5508Z" fill="#536B3F"/>
<path d="M51.4671 40.8207C52.1317 60.9507 45.7487 64.1732 43.5945 64.3243C43.6604 66.32 49.3333 58.7254 48.6687 38.5954C48.0041 18.4653 53.1965 1.25368 53.1564 0.0367477C55.3106 -0.114307 50.8025 20.6906 51.4671 40.8207Z" fill="#536B3F"/>
</g>
<defs>
<filter id="filter0_d_2_53" x="0.00585938" y="0.0359306" width="124.361" height="303.257" filterUnits="userSpaceOnUse" color-interpolation-filters="sRGB">
<feFlood flood-opacity="0" result="BackgroundImageFix"/>
<feColorMatrix in="SourceAlpha" type="matrix" values="0 0 0 0 0 0 0 0 0 0 0 0 0 0 0 0 0 0 127 0" result="hardAlpha"/>
<feOffset dy="4"/>
<feGaussianBlur stdDeviation="2"/>
<feComposite in2="hardAlpha" operator="out"/>
<feColorMatrix type="matrix" values="0 0 0 0 0 0 0 0 0 0 0 0 0 0 0 0 0 0 0.25 0"/>
<feBlend mode="normal" in2="BackgroundImageFix" result="effect1_dropShadow_2_53"/>
<feBlend mode="normal" in="SourceGraphic" in2="effect1_dropShadow_2_53" result="shape"/>
</filter>
</defs>
</svg>
