<svg width="157" height="190" viewBox="0 0 157 190" fill="none" xmlns="http://www.w3.org/2000/svg">
<path d="M3.432 174.3V169.112C3.432 161.122 3.482 153.157 3.58 145.436C4.14 101.311 12.102 64.189 26.607 38.085C33.313 26.0164 41.228 16.6165 50.133 10.1477C59.08 3.64712 68.624 0.350708 78.498 0.350708C88.373 0.350708 97.916 3.64712 106.864 10.1477C115.768 16.6165 123.683 26.0164 130.39 38.085C144.894 64.189 152.857 101.311 153.417 145.436C153.515 153.157 153.564 161.122 153.564 169.112V174.3H3.432Z" fill="#D7C5AC"/>
<path d="M3.58 145.435C4.14 101.311 12.102 64.19 26.607 38.085Z" fill="#D7C5AC"/>
<path d="M147.094 169.19H9.904C9.904 161.241 9.953 153.495 10.05 145.94C10.194 134.467 10.846 123.709 11.943 113.669C16.583 71.1346 29.179 41.4563 44.926 24.6397C46.584 22.868 48.279 21.2347 50.002 19.7475C67.941 4.27195 89.056 4.27195 106.995 19.7475C108.722 21.2347 110.414 22.8651 112.073 24.6397C120.347 33.4744 127.747 45.8583 133.585 61.7914C141.481 83.3464 146.512 111.397 146.948 145.94C147.045 153.495 147.094 161.241 147.094 169.19Z" fill="#F3E3CD"/>
<path d="M112.074 24.6388L44.926 24.6397C46.583 22.868 48.279 21.2356 50.003 19.7494H106.995C108.721 21.2356 110.415 22.8641 112.074 24.6388Z" fill="#D7C5AC"/>
<path d="M3.432 174.3V169.112C3.432 161.122 3.482 153.157 3.58 145.436C4.14 101.311 12.102 64.189 26.607 38.085C33.313 26.0164 41.228 16.6165 50.133 10.1477C59.08 3.64712 68.624 0.350708 78.498 0.350708C88.373 0.350708 97.916 3.64712 106.864 10.1477C115.768 16.6165 123.683 26.0164 130.39 38.085C144.894 64.189 152.857 101.311 153.417 145.436C153.515 153.157 153.564 161.122 153.564 169.112V174.3H3.432Z" fill="#D7C5AC"/>
<path d="M3.432 174.3V169.112C3.432 161.122 3.482 153.157 3.58 145.436C4.14 101.311 12.102 64.189 26.607 38.085C33.313 26.0164 41.228 16.6165 50.133 10.1477C59.08 3.64712 68.624 0.350708 78.498 0.350708C88.373 0.350708 97.916 3.64712 106.864 10.1477C115.768 16.6165 123.683 26.0164 130.39 38.085C144.894 64.189 152.857 101.311 153.417 145.436C153.515 153.157 153.564 161.122 153.564 169.112V174.3H3.432Z" fill="#D7C5AC"/>
<path d="M3.432 174.3V169.112C3.432 161.122 3.482 153.157 3.58 145.436C4.14 101.311 12.102 64.189 26.607 38.085C33.313 26.0164 41.228 16.6165 50.133 10.1477C59.08 3.64712 68.624 0.350708 78.498 0.350708C88.373 0.350708 97.916 3.64712 106.864 10.1477C115.768 16.6165 123.683 26.0164 130.39 38.085C144.894 64.189 152.857 101.311 153.417 145.436C153.515 153.157 153.564 161.122 153.564 169.112V174.3H3.432Z" fill="#D7C5AC"/>
<path d="M147.094 169.19H9.904C9.904 161.241 9.953 153.495 10.05 145.94C10.194 134.467 10.846 123.709 11.943 113.669C16.583 71.1346 29.179 41.4563 44.926 24.6397C46.584 22.868 48.279 21.2347 50.002 19.7475C67.941 4.27195 89.056 4.27195 106.995 19.7475C108.722 21.2347 110.414 22.8651 112.073 24.6397C120.347 33.4744 127.747 45.8583 133.585 61.7914C141.481 83.3464 146.512 111.397 146.948 145.94C147.045 153.495 147.094 161.241 147.094 169.19Z" fill="#F3E3CD"/>
<path d="M112.074 24.6388L44.926 24.6397C46.583 22.868 48.279 21.2356 50.003 19.7494H106.995C108.721 21.2356 110.415 22.8641 112.074 24.6388Z" fill="#D7C5AC"/>
<path d="M156.996 179.712H0V169.192H156.996V179.712Z" fill="#D7C5AC"/>
<path d="M35.51 179.712L32.581 189.483H20.695L17.766 179.712H35.51Z" fill="#C1AE94"/>
<path d="M141.616 179.712L138.687 189.483H126.801L123.872 179.712H141.616Z" fill="#C1AE94"/>
<path d="M34.673 130.624C34.673 130.624 25.9755 106.859 59.1104 100.522C60.731 100.211 58.2909 104.278 57.0969 105.358C48.7572 112.79 50.996 133.499 34.673 130.624Z" fill="#333333"/>
<path d="M26.421 147.187C26.386 147.187 26.352 147.186 26.317 147.18C25.921 147.126 25.648 146.773 25.705 146.394C27.789 132.561 43.0354 118.831 44.2514 118.142C44.5944 117.946 45.7272 117.365 45.9312 117.695C46.1352 118.025 45.6405 118.992 45.2975 119.188L44.5976 120.026C44.0906 120.313 37.277 128.511 34.401 131.615C30.431 135.9 27.986 140.94 27.135 146.593C27.083 146.939 26.774 147.187 26.421 147.187Z" fill="#333333"/>
<path d="M30.84 147.188C30.828 147.188 30.817 147.188 30.805 147.187C30.407 147.168 30.099 146.844 30.118 146.461C30.408 140.541 22.3328 129.076 22.2928 129.021C22.0628 128.709 22.1418 128.275 22.4678 128.054C22.7938 127.834 27.411 133.974 27.641 134.287C27.815 134.523 31.873 140.135 31.56 146.526C31.542 146.897 31.223 147.188 30.84 147.188Z" fill="#333333"/>
<path d="M27.891 135.473C27.891 135.473 17.7336 149.957 12.2016 119.595C11.9166 118.029 10.0395 106.369 12.2081 108.137C18.671 113.345 33.753 120.548 27.891 135.473Z" fill="#333333"/>
<path d="M32.914 148.204H32.895C32.496 148.193 32.182 147.874 32.192 147.491L32.807 124.977C32.817 124.593 33.147 124.292 33.548 124.301C33.947 124.311 34.262 124.631 34.251 125.013L33.636 147.528C33.625 147.904 33.304 148.204 32.914 148.204Z" fill="#4B8078"/>
<path d="M36.132 132.764C34.945 135.126 31.36 134.866 30.544 132.363C28.344 125.609 31.9684 132.906 26.3425 110.192C25.0082 104.615 30.7652 93.3553 34.6817 91.5449C37.212 90.3575 35.7636 91.0865 36.2331 91.1412C39.5994 91.2458 40.5748 95.3176 40.987 102.258C41.8604 115.787 40.3691 124.338 36.132 132.764Z" fill="#4B8078"/>
<path d="M33.222 134.279C33.217 134.279 33.211 134.28 33.206 134.279C32.989 134.27 32.819 134.095 32.827 133.886L33.9229 102.238C33.9319 102.028 32.9273 97.3997 33.1423 97.4093C33.3593 97.418 32.5758 101.829 32.5678 102.038L33.616 133.916C33.607 134.12 33.432 134.279 33.222 134.279Z" fill="#333333"/>
<path d="M37.003 148.563C36.61 148.563 36.288 148.26 36.281 147.882C36.143 140.656 42.167 137.528 42.423 137.398C42.776 137.22 43.213 137.35 43.399 137.689C43.585 138.028 43.449 138.447 43.097 138.625C43.083 138.633 41.691 139.354 40.34 140.856C38.554 142.844 37.674 145.201 37.725 147.857C37.732 148.24 37.415 148.557 37.016 148.563C37.012 148.564 37.007 148.563 37.003 148.563Z" fill="#4B8078"/>
<path d="M38.944 141.317C38.944 141.317 67.9055 142.277 63.062 116.173C62.7674 114.621 64.8152 106.725 63.1862 106.998C54.8602 108.389 36.845 125.491 38.944 141.317Z" fill="#4B8078"/>
<path d="M39.367 141.362C39.253 141.362 39.139 141.316 39.061 141.223C38.923 141.063 38.949 140.823 39.117 140.691L55.442 119.022C55.611 118.889 55.86 118.915 55.998 119.076C56.136 119.238 56.11 119.477 55.942 119.609L39.617 141.277C39.543 141.335 39.455 141.362 39.367 141.362Z" fill="#333333"/>
<path d="M138.953 156.514C138.953 156.514 134.945 157.513 129.079 150.205C124.84 144.923 131.032 140.537 132.342 138.381C136.784 133.091 134.522 142.92 139.22 145.344C144.35 147.993 145.432 152.722 138.953 156.514Z" fill="#4B8078"/>
<path d="M141.284 162.105C140.422 157.35 140.024 153.034 137.385 149.733C135.067 146.809 134.623 146.108 134.123 146.058C133.779 146.101 133.979 146.346 134.183 146.431C134.432 146.802 134.48 146.894 134.586 147.003C139.693 152.191 139.696 155.372 140.907 162.216C141.348 164.706 141.459 167.069 141.629 169.191H142.193C142.022 167.046 141.741 164.623 141.284 162.105Z" fill="#333333"/>
<path d="M136.786 121.395C133.41 128.634 135.4 140.136 142.98 140.424C142.98 140.424 148.364 139.211 149.796 130.085C150.285 126.973 150.233 123.408 147.259 117.83C144.209 112.307 137.438 107.448 136.42 107.611C135.248 108.007 139.972 114.423 136.786 121.395Z" fill="#4B8078"/>
<path d="M147.092 166.894C146.226 163.902 145.316 160.469 144.501 156.816C142.124 146.164 143.302 131.025 143.442 120.762C143.443 120.613 143.424 120.467 143.279 120.414C143.134 120.362 142.92 120.423 142.917 120.572C142.782 126.668 141.901 132.655 142.175 138.98C142.447 145.239 142.699 149.712 143.953 156.936C144.731 161.413 146.073 165.487 147.095 168.883C147.095 168.217 147.093 167.558 147.092 166.894Z" fill="#333333"/>
<path d="M19.754 79.7558C19.754 79.7558 22.916 82.361 32.417 81.0354C50.212 78.5532 55.4651 79.3134 57.7674 51.4876C57.7674 51.4876 49.2131 51.5269 38.3441 65.3299C30.1686 75.6401 19.2778 66.4465 19.754 79.7558Z" fill="#4B8078"/>
<path d="M48.2266 63.8894C48.3416 63.7917 48.5126 63.7817 48.5196 63.6327C48.5266 63.4837 48.8477 64.0582 48.7279 64.1513C39.0365 72.0439 37.7921 71.2573 26.8616 77.0324C22.4735 79.3494 18.052 79.5232 14.536 82.9677C12.405 85.0557 10.543 87.1619 9.02 89.0164C8.945 89.398 8.873 89.7835 8.799 90.1671C10.42 88.1415 12.3507 85.5729 14.944 83.3387C20.399 78.6366 39.1298 71.4302 48.2266 63.8894Z" fill="#333333"/>
<path d="M44.396 48.5769C60.3697 36.7152 55.2374 33.565 54.464 27.9246C53.7638 23.3357 37.4826 30.9425 32.9454 38.1226C27.9013 45.4626 28.961 42.7445 26.419 52.0771C23.986 61.006 25.932 64.3091 25.932 64.3091C32.344 68.2054 38.7805 52.766 44.396 48.5769Z" fill="#4B8078"/>
<path d="M15.389 77.3775C20.664 72.592 24.2078 68.755 27.676 63.244C35.0992 51.3433 36.8189 46.1605 40.6849 39.7696C40.7629 39.6398 40.6309 39.4774 40.4799 39.4418C40.3289 39.4062 40.211 39.5072 40.1399 39.6398C33.244 52.5237 25.9201 67.6586 15.008 76.9795C13.5616 78.2163 12.208 79.4684 10.856 80.6181C10.784 80.92 10.711 81.218 10.641 81.5218C12.178 80.2278 13.774 78.8416 15.389 77.3775Z" fill="#333333"/>
<path d="M81.0968 108.095C81.0968 108.095 77.5965 105.808 75.2684 105.947C72.9393 106.087 71.7044 108.747 71.7044 108.747L81.0968 108.095Z" fill="#E1A95A"/>
<path d="M100.008 78.7273C99.4599 79.9492 98.9143 81.1247 98.35 82.3125C97.7931 83.4973 97.2211 84.6764 96.6446 85.852C96.0726 87.031 95.4859 88.2015 94.8933 89.3712C94.298 90.5395 93.7127 91.714 93.1011 92.8775C91.8821 95.203 90.6542 97.5351 89.3763 99.8475C88.7314 101.007 88.0933 102.161 87.427 103.317L86.4298 105.049C86.095 105.625 85.7437 106.204 85.4006 106.782C84.7269 107.934 83.9916 109.097 83.2718 110.251L82.131 112.004L81.8432 112.443C81.7989 112.513 81.7444 112.593 81.6876 112.674L81.521 112.912C81.296 113.229 81.0796 113.555 80.8468 113.864C79.0233 116.368 76.962 118.599 74.7795 120.622C72.5925 122.642 70.2699 124.439 67.8478 126.051C66.6356 126.857 65.3929 127.608 64.1241 128.325C63.4904 128.682 62.8405 129.02 62.183 129.357C61.8564 129.524 61.5209 129.683 61.178 129.846L60.6546 130.09L60.0495 130.362C57.246 131.835 53.7895 130.832 52.3283 128.122C50.8661 125.413 51.9546 122.021 54.7579 120.549C54.7382 120.555 54.7778 120.529 54.7925 120.517L54.8624 120.463L55.0179 120.347L55.3522 120.101L56.0426 119.582C56.5086 119.233 56.9711 118.867 57.4356 118.501C58.3633 117.771 59.27 117.008 60.159 116.236C61.9308 114.687 63.6132 113.075 65.1383 111.4C66.6624 109.726 68.0399 107.991 69.201 106.222C69.3519 106.002 69.4818 105.777 69.6239 105.555L69.728 105.39C69.7619 105.336 69.7979 105.281 69.838 105.211L70.0686 104.823L70.9961 103.266C71.6045 102.185 72.2254 101.128 72.8308 100.021C75.2624 95.6301 77.6534 91.0952 80.0264 86.5532L83.601 79.7303L85.3965 76.317C85.9917 75.1837 86.6029 74.0368 87.198 72.9307L87.2132 72.9024C89.0501 69.4854 93.3552 68.1193 96.8259 69.8532C100.138 71.5071 101.486 75.4074 100.008 78.7273Z" fill="#FFBE66"/>
<path d="M87.3817 64.5156C87.3817 64.5156 79.9472 83.4898 76.6296 88.1059L88.437 99.9485C88.437 99.9485 93.1305 74.1368 87.3817 64.5156Z" fill="black"/>
<path d="M128.563 157.594C128.487 157.958 128.489 159.15 128.378 159.496C128.375 159.508 128.372 159.522 128.368 159.536C128.217 160.003 128.051 160.452 127.871 160.881C126.259 164.683 113.801 165.24 101.537 163.919C92.025 162.894 82.628 160.737 78.503 158.082C74.628 155.591 82.879 132.601 82.879 132.601L131.022 139.388C131.022 139.388 131.022 145.782 128.563 157.594Z" fill="#815F31"/>
<path d="M99.98 169.152L100.654 163.818L100.834 162.329L83.241 154.524L82.144 154.034L77.663 152.048C77.625 152.396 77.587 152.743 77.549 153.091C77.406 154.391 77.264 155.685 77.127 156.973C77.084 157.363 77.044 157.751 77.001 158.136C76.603 161.859 76.225 165.535 75.868 169.152H99.98Z" fill="#815F31"/>
<path d="M97.725 169.152L98.338 164.637C98.378 164.336 98.159 164.059 97.847 164.019C97.535 163.978 97.246 164.193 97.205 164.493L96.572 169.152H97.725Z" fill="#3D3D3D"/>
<path d="M88.188 144.641C88.132 144.926 87.007 150.544 83.241 154.524C82.48 155.328 81.612 156.066 80.623 156.679C79.85 157.158 79.041 157.535 78.194 157.812C77.805 157.944 77.407 158.052 77.001 158.136C77.043 157.75 77.083 157.363 77.127 156.975C77.319 156.927 77.51 156.875 77.698 156.813C78.505 156.559 79.276 156.207 80.007 155.755C80.799 155.263 81.509 154.676 82.143 154.035C85.901 150.252 87.051 144.506 87.065 144.439C87.122 144.142 87.418 143.944 87.731 144C88.041 144.057 88.245 144.342 88.188 144.641Z" fill="#3D3D3D"/>
<path d="M97.593 161.534C97.581 161.776 97.781 161.984 98.041 161.998C98.043 161.999 98.043 161.998 98.045 161.998C98.308 162.01 98.53 161.824 98.542 161.58C98.626 159.921 98.728 158.224 98.838 156.529C98.858 156.23 98.877 155.933 98.899 155.634C99.273 150.095 99.747 144.654 100.106 140.814C100.136 140.504 100.163 140.203 100.192 139.914C100.271 139.071 100.345 138.324 100.406 137.692C100.091 137.643 99.775 137.595 99.463 137.544C99.402 138.177 99.328 138.932 99.248 139.783C99.22 140.073 99.194 140.373 99.164 140.683C98.809 144.49 98.337 149.881 97.963 155.387C97.942 155.692 97.92 155.996 97.899 156.301C97.784 158.057 97.681 159.819 97.593 161.534Z" fill="#3D3D3D"/>
<path d="M96.237 155.687C96.385 155.755 97.052 156.054 97.899 156.301C98.195 156.388 98.513 156.467 98.839 156.53C99.136 156.585 99.439 156.626 99.74 156.642C100.315 156.673 100.872 156.615 101.336 156.401C101.914 156.135 102.289 155.65 102.419 155.001C102.764 153.293 103.49 146.236 103.979 141.245C104.01 140.937 104.04 140.638 104.068 140.347C104.145 139.548 104.215 138.822 104.273 138.205C103.959 138.168 103.643 138.131 103.327 138.09C103.268 138.712 103.198 139.447 103.118 140.255C103.09 140.545 103.061 140.846 103.031 141.153C102.542 146.133 101.818 153.18 101.482 154.835C101.407 155.219 101.224 155.464 100.909 155.609C100.406 155.841 99.65 155.792 98.899 155.634C98.579 155.568 98.259 155.48 97.963 155.387C97.418 155.219 96.943 155.027 96.657 154.896C96.422 154.787 96.136 154.875 96.02 155.095C95.905 155.313 96.002 155.579 96.237 155.687Z" fill="#3D3D3D"/>
<path d="M127.438 169.152C127.741 166.084 128.022 163.196 128.27 160.625C128.304 160.256 128.34 159.892 128.375 159.536C128.378 159.521 128.379 159.507 128.379 159.495C128.379 159.493 128.379 159.487 128.381 159.483C128.414 159.124 128.448 158.776 128.482 158.436C129.006 152.97 129.337 149.404 129.337 149.404C127.148 148.528 123.247 149.079 119.045 150.186C118.674 150.285 118.302 150.387 117.929 150.492C117.227 150.69 116.521 150.904 115.818 151.122C115.445 151.241 115.076 151.359 114.707 151.479C107.887 153.716 101.537 156.636 101.537 156.636V169.152H127.438Z" fill="#815F31"/>
<path d="M124.59 169.152C124.892 165.122 125.084 162.463 125.091 162.367C125.113 162.065 124.874 161.802 124.561 161.781C124.246 161.76 123.974 161.989 123.951 162.291C123.944 162.389 123.75 165.08 123.445 169.152H124.59Z" fill="#3D3D3D"/>
<path d="M128.382 159.484C128.38 159.487 128.379 159.493 128.379 159.497C128.379 159.508 128.377 159.522 128.374 159.537C128.339 159.894 128.305 160.257 128.27 160.625C126.651 160.889 125.068 160.753 123.53 160.217C120.608 159.196 118.314 156.893 116.649 154.599C115.859 153.51 115.211 152.425 114.706 151.48C113.849 149.877 113.398 148.676 113.347 148.542C113.241 148.255 113.397 147.941 113.693 147.84C113.993 147.736 114.316 147.887 114.421 148.173C114.435 148.206 114.904 149.457 115.817 151.123C116.298 152.006 116.902 153.003 117.627 153.998C119.185 156.14 121.293 158.268 123.922 159.184C125.356 159.684 126.849 159.784 128.382 159.484Z" fill="#3D3D3D"/>
<path d="M137.382 98.9085C137.389 99.2421 137.343 99.8506 137.294 100.176C136.791 103.582 136.298 104.603 136.127 107.097C136.05 108.196 135.711 109.568 135.592 110.669C135.49 111.651 135.302 112.855 135.061 114.273C134.812 115.752 134.512 117.466 134.196 119.401C134.092 120.043 133.987 120.706 133.886 121.399C133.855 121.586 133.826 121.778 133.798 121.973C133.742 122.339 133.69 122.716 133.638 123.099L133.623 125.333C133.081 129.177 132.809 132.893 132.439 135.823C132.413 136.015 132.389 136.203 132.368 136.388C132.26 137.191 132.138 137.931 132.001 138.586C131.865 139.241 131.707 139.812 131.529 140.289C131.512 140.296 131.501 140.307 131.484 140.31C131.481 140.313 131.477 140.317 131.474 140.317C131.448 140.328 131.424 140.341 131.403 140.351C131.375 140.364 131.351 140.375 131.322 140.384C131.313 140.391 131.298 140.394 131.291 140.398C131.267 140.411 131.246 140.422 131.229 140.428C131.214 140.434 131.2 140.441 131.187 140.445C131.152 140.458 131.127 140.468 131.116 140.472C131.113 140.472 131.113 140.471 131.11 140.474C131.096 140.48 131.082 140.485 131.065 140.492C130.882 140.573 130.592 140.69 130.428 140.76C130.414 140.768 130.397 140.771 130.383 140.777C128.788 141.436 127.159 141.994 125.505 142.455C123.611 142.992 121.684 143.406 119.747 143.709C119.387 143.765 119.027 143.815 118.667 143.865C118.635 143.869 118.611 143.873 118.579 143.876C117.384 144.037 116.188 144.155 114.988 144.232C114.541 144.263 114.094 144.286 113.643 144.304C112.031 144.37 110.426 144.367 108.835 144.297C108.644 144.293 108.451 144.282 108.255 144.27C106.476 144.176 104.714 144.001 102.99 143.749C102.808 143.721 102.623 143.694 102.438 143.664C102.406 143.66 102.375 143.657 102.343 143.65C102.06 143.607 101.777 143.56 101.497 143.51C100.564 143.355 99.644 143.17 98.738 142.965C98.424 142.898 98.11 142.825 97.802 142.747C94.4 141.92 91.226 140.807 88.421 139.466C88.219 139.366 88.016 139.267 87.814 139.166C87.666 139.096 87.523 139.024 87.38 138.949C87.341 138.933 87.31 138.915 87.275 138.895C86.352 138.415 85.471 137.91 84.646 137.383C84.607 137.356 84.569 137.332 84.53 137.308C83.44 136.605 82.44 135.863 81.541 135.087C81.779 133.642 82.051 132.113 82.328 130.617V130.613C82.387 130.288 82.446 129.962 82.506 129.643C82.677 128.735 82.841 127.85 83.003 127.025C83.003 127.021 83.006 127.017 83.006 127.013C83.366 125.28 83.715 123.482 84.055 121.686C84.065 121.654 84.069 121.631 84.069 121.631C84.181 121.045 84.289 120.457 84.398 119.876C84.464 119.513 84.527 119.153 84.593 118.797V118.794C85.215 115.362 85.764 112.095 86.177 109.513V109.51C86.222 109.215 86.268 108.932 86.31 108.657C86.411 108.024 86.499 107.447 86.575 106.926C86.743 105.8 86.89 104.703 87.027 103.638C87.159 102.593 87.275 101.574 87.376 100.583C87.495 99.4536 87.593 98.348 87.67 97.2838C87.719 96.708 87.757 96.1437 87.792 95.5928V95.589C87.81 95.3333 87.823 95.0785 87.838 94.8257C87.852 94.5911 87.865 94.3556 87.876 94.1201H87.88C87.88 94.0634 87.883 94.0095 87.887 93.9519C87.901 93.6904 87.911 93.4279 87.918 93.1722C87.96 92.3022 87.985 91.4591 88.002 90.6314C88.04 88.7828 88.027 87.0552 87.978 85.4354C87.967 85.1499 87.96 84.8711 87.949 84.5952C87.841 81.7891 87.624 79.3319 87.38 77.1804C87.352 76.9257 87.32 76.6738 87.292 76.4248C86.726 71.7595 86.055 68.6063 86.132 66.4885C86.146 66.1126 86.177 65.7704 86.247 65.4579C86.359 64.8965 86.523 64.3928 86.726 63.9419C86.925 63.4949 87.166 63.0988 87.446 62.7422C88.418 61.502 89.82 60.8032 91.414 60.2687C91.596 60.2042 91.778 60.1437 91.967 60.0908C92.467 59.9322 92.984 59.7918 93.512 59.6467C93.697 59.5957 93.886 59.5457 94.078 59.4919C94.658 59.3371 95.249 59.1756 95.837 58.991H95.851C96.298 58.8507 96.742 58.7026 97.183 58.5373C97.368 58.4671 97.554 58.3931 97.736 58.3191C97.913 58.2422 98.092 58.1681 98.263 58.0874C98.486 57.9836 98.714 57.872 98.935 57.7548C100.099 57.1357 101.186 56.3156 102.106 55.1697C102.116 55.163 102.123 55.1534 102.13 55.1428C102.238 55.0054 102.347 54.8602 102.451 54.7121H115.908C115.908 54.7121 116.698 55.3341 118.128 56.1042C118.293 56.1945 118.46 56.282 118.643 56.3762C118.743 56.4272 118.849 56.4772 118.953 56.531C119.069 56.5916 119.188 56.6444 119.31 56.705C119.38 56.7348 119.457 56.7704 119.527 56.8002C119.978 57.0088 120.482 57.2164 121.024 57.4183C121.491 57.5933 121.995 57.7644 122.533 57.923C122.701 57.9759 122.869 58.0239 123.051 58.071C123.401 58.1681 123.768 58.2623 124.149 58.3498C124.348 58.396 124.547 58.4402 124.75 58.4806C125.212 58.5748 125.687 58.6623 126.184 58.7353C127.142 58.8834 128.04 59.1631 128.868 59.5726C129.047 59.6563 129.218 59.7515 129.39 59.8485C129.97 60.1841 130.516 60.584 131.026 61.0521C131.306 61.304 131.574 61.5761 131.83 61.8722H131.833C132.145 62.2211 132.439 62.6008 132.722 63.0075C133.078 63.5285 133.413 64.0899 133.722 64.6946C133.826 64.9004 133.924 65.108 134.026 65.3233C135.284 68.0756 136.064 71.622 136.344 75.8567C136.493 78.1591 136.644 80.4009 136.791 82.5889C136.809 82.8408 136.826 83.0888 136.843 83.3407C136.896 84.1674 136.951 84.9913 137.001 85.8084C137.095 87.3177 137.183 88.8097 137.259 90.2853C137.27 90.5881 137.291 90.8939 137.301 91.1967C137.333 91.8821 137.354 92.4973 137.364 93.079C137.393 94.5671 137.364 95.8514 137.382 97.5415C137.385 97.7299 137.382 98.7239 137.382 98.9085Z" fill="black"/>
<path d="M129.391 59.8495C128.563 60.8868 127.66 61.8673 126.685 62.7864C125.662 63.7496 124.567 64.6542 123.404 65.4579C122.314 66.2087 120.946 66.9768 119.544 66.7452C116.962 66.3174 116.655 63.2449 116.781 61.2261C116.895 59.4381 117.361 57.7086 118.128 56.1042C118.291 56.1936 118.461 56.283 118.641 56.3762C117.963 57.8038 117.537 59.3371 117.397 60.9108C117.194 63.1863 117.69 67.1153 121.117 66.029C122.463 65.6021 123.642 64.6196 124.704 63.7535C125.656 62.9777 126.555 62.1432 127.395 61.2598C127.912 60.7157 128.403 60.1523 128.87 59.5726C129.046 59.6582 129.22 59.7505 129.391 59.8495Z" fill="#0F7869"/>
<path d="M128.253 139.481C128.377 139.481 128.491 139.401 128.524 139.281C137.471 107.81 131.962 75.2606 131.905 74.9357C131.879 74.7886 131.74 74.6848 131.581 74.7136C131.428 74.7386 131.324 74.878 131.35 75.0261C131.406 75.35 136.895 107.785 127.982 139.138C127.941 139.282 128.029 139.431 128.18 139.47C128.204 139.478 128.23 139.481 128.253 139.481Z" fill="#0F7869"/>
<path d="M92.4296 34.7121C94.8136 39.8245 99.385 43.6203 104.967 45.2324C105.716 45.4487 106.321 45.6622 106.687 45.864C108.736 46.9994 111.824 45.319 113.67 42.558C115.332 40.0739 114.214 37.3649 115.444 35.0769C118.499 29.3993 115.968 25.1992 115.968 25.1992C115.968 25.1992 114.483 21.4044 108.293 20.396C102.102 19.3875 99.6328 23.0625 94.267 22.9439C87.3481 22.7858 85.0832 22.4272 84.9032 25.0747C84.7222 27.7212 91.7862 30.9669 92.4864 31.9528C93.1867 32.9387 92.3379 33.5484 92.332 34.2723C92.38 34.3357 92.3636 34.5708 92.4296 34.7121Z" fill="black"/>
<path d="M116.071 54.8583C115.572 57.1539 112.002 59.9303 110.006 60.5695C106.9 61.5665 103.702 61.28 101.174 60.0149L100.509 52.8097L111.924 44.1942L112.343 43.877L112.528 44.2615L112.739 44.7047L112.697 44.9017C113.913 49.2316 114.108 51.831 116.071 54.8583Z" fill="#FFBE66"/>
<path d="M101.001 58.5815C105.492 57.153 107.746 53.5672 108.626 51.3311C106.524 53.273 103.916 54.6381 101.444 54.6122C101.177 54.6093 100.92 54.592 100.672 54.5603L101.001 58.5815Z" fill="black"/>
<path d="M94.142 40.0076C94.142 40.0076 92.762 40.2441 92.652 41.9764C92.541 43.7097 93.698 46.487 95.461 45.9832C97.225 45.4795 94.142 40.0076 94.142 40.0076Z" fill="#A57B40"/>
<path d="M112.983 45.2988L112.981 45.2997C112.958 45.3026 112.936 45.3074 112.915 45.3113C112.886 45.4612 112.851 45.6122 112.814 45.7621C112.798 45.8294 112.782 45.8938 112.763 45.9592C112.689 46.2322 112.596 46.5072 112.489 46.7831C110.836 51.0677 105.583 55.5985 100.989 55.3851C100.718 55.3716 100.46 55.3447 100.209 55.3062C95.751 54.6112 94.278 49.8776 94.51 46.2092C94.519 46.0717 94.529 45.9342 94.544 45.7987C94.544 45.7987 94.516 45.5506 94.462 45.1161C94.418 44.771 94.355 44.2999 94.278 43.7453C94.043 42.0879 93.654 39.6423 93.122 37.2409C92.187 33.0302 94.671 26.5643 103.558 24.4801C110.641 22.8209 114.497 26.3893 115.794 30.1789C116.124 31.1441 116.288 32.1227 116.296 33.0341C116.309 34.1579 116.107 35.4653 115.796 36.7967C116.65 36.8006 117.593 37.1899 118.183 38.604C119.271 41.216 116.156 44.7806 112.983 45.2988Z" fill="#FFBE66"/>
<path d="M115.795 36.7967C114.187 37.8705 113.164 38.0647 113.164 38.0647L111.38 40.3325L109.278 39.1732C109.278 39.1732 110.698 36.5583 109.283 35.7816C107.869 35.0048 107.869 33.3023 107.869 33.3023C107.869 33.3023 113.556 30.0962 115.793 30.178C116.123 31.1441 116.287 32.1237 116.295 33.0341C116.309 34.1579 116.107 35.4653 115.795 36.7967Z" fill="#A57B40"/>
<path d="M92.874 32.3188C92.874 32.3188 97.3433 29.3561 101.824 30.3853C106.516 31.4612 108.168 34.1626 108.168 34.1626C108.168 34.1626 114.879 34.5692 116.395 32.7802C117.912 30.9921 115.413 23.9168 110.016 22.9093C104.618 21.9028 96.79 23.9601 92.874 32.3188Z" fill="black"/>
<path d="M95.823 41.6813C95.939 42.2831 96.2738 42.6255 96.5988 42.5679C96.9228 42.5092 97.114 42.0725 96.997 41.4707C96.881 40.8689 96.5328 40.501 96.2088 40.5597C95.8838 40.6183 95.706 41.0795 95.823 41.6813Z" fill="black"/>
<path d="M97.8022 40.5125C97.8332 40.4981 97.8612 40.475 97.8782 40.4433C97.9222 40.3654 97.8922 40.2664 97.8112 40.2241C97.7422 40.1885 96.1571 39.3588 94.9211 40.3999C94.8511 40.4586 94.8441 40.5614 94.9041 40.6287C94.9661 40.696 95.0711 40.7018 95.1421 40.6441C96.2031 39.7501 97.6352 40.5 97.6502 40.5087C97.6982 40.5337 97.7552 40.5337 97.8022 40.5125Z" fill="black"/>
<path d="M103.557 43.1098C103.614 43.5126 104.046 43.8846 105.332 43.7164C106.617 43.5482 107.206 43.2646 107.149 42.8618C107.093 42.458 106.41 42.0879 105.125 42.2561C103.839 42.4244 103.499 42.707 103.557 43.1098Z" fill="#A57B40"/>
<path d="M94.462 45.1161C95.343 44.8979 95.945 44.546 95.901 44.2298C95.856 43.9144 95.183 43.7308 94.276 43.7453C94.355 44.3009 94.417 44.77 94.462 45.1161Z" fill="#A57B40"/>
<path d="M110.592 45.0805C110.823 45.3488 111.087 45.5372 111.359 45.6698C111.855 45.9111 112.378 45.964 112.764 45.9592C112.782 45.8938 112.799 45.8265 112.814 45.7621C112.853 45.6102 112.888 45.4612 112.915 45.3113C112.937 45.3074 112.958 45.3036 112.98 45.3007C112.882 45.3074 112.758 45.3122 112.617 45.3065C112.434 45.3017 112.225 45.2776 112.01 45.2171C111.694 45.1286 111.367 44.9633 111.11 44.6662C110.99 44.5287 110.778 44.5095 110.637 44.6249C110.493 44.7402 110.474 44.944 110.592 45.0805Z" fill="#A57B40"/>
<path d="M100.209 55.3062C100.459 55.3447 100.718 55.3726 100.988 55.386C105.583 55.6004 110.835 51.0677 112.488 46.784C112.351 46.2755 112.031 45.8188 111.358 45.6708L111.38 40.3325L109.278 39.1732C109.278 39.1732 109.038 43.4907 106.362 44.4384C104.722 45.0146 101.842 44.118 99.2714 45.6303C98.3708 44.9424 96.2 44.9969 94.509 46.2091C94.276 49.8766 95.75 54.6102 100.209 55.3062Z" fill="black"/>
<path d="M102.406 45.6808C102.406 45.6808 102.673 48.4459 100.219 48.9497C97.7653 49.4544 97.15 47.2373 97.15 47.2373L102.406 45.6808Z" fill="white"/>
<path d="M100.915 49.8987C101.381 49.7334 101.588 49.371 101.6 49.3498C101.658 49.2431 101.617 49.1124 101.507 49.0556C101.397 48.9989 101.263 49.0383 101.203 49.1431C101.19 49.1662 100.917 49.618 100.265 49.5344C100.141 49.518 100.028 49.6017 100.013 49.7209C99.9959 49.8401 100.082 49.9487 100.205 49.9651C100.488 50.0006 100.724 49.966 100.915 49.8987Z" fill="#444444"/>
<path d="M113.472 43.0329C113.602 42.9925 113.699 42.8762 113.703 42.7368C113.79 40.4383 116.401 39.0616 116.427 39.0472C116.59 38.9626 116.653 38.7665 116.565 38.6088C116.477 38.4512 116.274 38.3916 116.11 38.4762C115.989 38.5387 113.131 40.0384 113.031 42.7128C113.025 42.8925 113.169 43.0425 113.355 43.0492C113.396 43.0502 113.435 43.0444 113.472 43.0329Z" fill="#A57B40"/>
<path d="M116.164 41.3573C116.204 41.3448 116.243 41.3256 116.277 41.2977C116.419 41.1814 116.436 40.9766 116.316 40.8401C116.284 40.8026 115.497 39.9288 114.155 40.1816C113.974 40.2162 113.855 40.3873 113.891 40.5623C113.927 40.7382 114.102 40.8526 114.284 40.818C115.243 40.6373 115.797 41.2525 115.803 41.2583C115.893 41.3621 116.038 41.3967 116.164 41.3573Z" fill="#A57B40"/>
<path d="M98.8477 44.9389C98.9247 44.9148 98.9937 44.8639 99.0357 44.7898C99.1277 44.6341 99.0697 44.4361 98.9077 44.3486L97.048 43.325L98.4305 42.6896C98.5205 42.6511 98.5653 42.5291 98.5933 42.4377L99.8 38.4906C99.852 38.3185 99.75 38.1388 99.572 38.0878C99.394 38.0378 99.208 38.1359 99.156 38.308L97.9918 42.1097L96.1655 42.981C96.0617 43.0612 96.0043 43.1757 95.9993 43.2987C95.9943 43.4208 96.076 43.5527 96.187 43.6123L98.5767 44.9147C98.6627 44.9599 98.7617 44.9658 98.8477 44.9389Z" fill="#A57B40"/>
<path d="M104.448 37.8548C104.587 37.8115 104.985 37.6211 105.093 37.5134C105.448 37.1597 105.022 36.4241 104.654 36.0819C104.568 36.0002 103.023 34.9246 100.257 35.6303C99.7633 35.7566 99.272 36.0584 99.491 36.5035C99.711 36.9477 100.353 37.0784 100.815 36.8679C102.137 36.2622 103.416 37.2354 103.427 37.2479C103.682 37.4854 104.133 37.9538 104.448 37.8548Z" fill="black"/>
<path d="M94.5015 38.5171C94.7575 38.4364 94.9868 38.064 95.1842 37.8602C95.9242 37.1043 96.9691 37.0441 97.2971 37.0373C97.8081 37.0268 98.5113 36.7052 98.5013 36.213C98.4903 35.7218 97.6358 35.3983 97.1401 35.5133C95.3391 35.9391 95.0981 36.2187 93.4257 37.8812C93.0722 38.2364 93.4818 38.8551 93.9588 39.031C93.6752 38.9531 94.296 38.6958 94.5015 38.5171Z" fill="black"/>
<path d="M101.283 40.7603C101.401 41.35 101.747 41.71 102.071 41.6514C102.396 41.5928 102.562 41.1338 102.459 40.5498C102.343 39.948 102.001 39.5931 101.677 39.6517C101.353 39.7094 101.167 40.1585 101.283 40.7603Z" fill="black"/>
<path d="M103.703 39.7764C103.735 39.7659 103.765 39.7457 103.787 39.7168C103.841 39.6447 103.824 39.5438 103.749 39.4909C103.685 39.4467 102.187 38.424 100.823 39.3065C100.746 39.3555 100.725 39.4566 100.777 39.5315C100.829 39.6056 100.933 39.6257 101.011 39.5748C102.182 38.8173 103.538 39.7438 103.552 39.7534C103.597 39.7851 103.653 39.7918 103.703 39.7764Z" fill="black"/>
<path d="M91.557 70.7962C90.592 73.1851 89.138 75.3039 87.378 77.1814C87.351 76.9238 87.321 76.6709 87.291 76.4229C88.746 74.8021 89.968 73.0025 90.838 71C92.294 67.6478 92.596 63.7102 91.412 60.2648C91.596 60.2023 91.779 60.1437 91.966 60.087C93.145 63.5189 92.922 67.4114 91.557 70.7962Z" fill="#0F7869"/>
<path d="M134.026 65.3233C132.05 68.489 129.167 71.124 125.775 72.8477V72.8515C125.271 73.1034 124.757 73.3418 124.233 73.5572C119.188 75.624 113.612 75.6442 108.238 76.1047C102.843 76.5652 97.75 77.7313 93.25 80.746C91.275 82.0669 89.499 83.6512 87.978 85.4354C87.967 85.1499 87.96 84.8711 87.949 84.5952C89.351 83.0292 90.95 81.6247 92.712 80.4172C96.722 77.6678 101.305 76.2941 106.162 75.7384C111.724 75.1039 117.489 75.3049 122.835 73.4735C123.967 73.0861 125.058 72.5987 126.093 72.0277C129.247 70.2867 131.907 67.7401 133.722 64.6946C133.827 64.9004 133.924 65.108 134.026 65.3233Z" fill="#0F7869"/>
<path d="M87.417 72.5362C87.438 72.7227 87.594 74.2186 87.773 76.3373C87.8 76.6478 87.825 76.9718 87.853 77.3073C88.119 80.6739 88.396 85.1681 88.311 88.5895C88.303 88.9 87.883 89.0144 87.707 88.7549L87.701 88.7462C87.798 85.3325 87.513 80.7162 87.243 77.2939C87.239 77.2746 87.238 77.2535 87.24 77.2333C87.025 74.5752 86.827 72.6477 86.82 72.5958C86.802 72.4362 86.922 72.293 87.088 72.2795C87.254 72.2622 87.4 72.3776 87.417 72.5362Z" fill="#0F7869"/>
<path d="M106.688 91.3985C106.346 93.5241 103.86 95.018 102.309 96.2879C96.932 100.697 91.555 105.105 86.176 109.512C86.223 109.216 86.268 108.931 86.312 108.656C87.274 107.868 88.237 107.079 89.199 106.29C93.033 103.149 96.865 100.006 100.697 96.8647C101.693 96.0495 102.691 95.2362 103.685 94.4171C104.466 93.7721 105.267 93.0934 105.763 92.208C106.463 90.9583 106.015 89.6172 104.529 89.275C103.614 89.0644 102.639 89.2106 101.734 89.3846C96.789 90.3382 92.067 92.207 87.838 94.8257C87.853 94.5882 87.867 94.3537 87.876 94.1201L87.878 94.1191C89.241 93.2962 90.654 92.5473 92.11 91.8821C94.062 90.9909 96.085 90.2411 98.158 89.6518C100.067 89.1096 102.338 88.3627 104.356 88.6684C105.785 88.8856 106.928 89.9191 106.688 91.3985Z" fill="#0F7869"/>
<path d="M127.351 75.0405C123.242 76.5046 119.128 78.4859 116.387 81.8919C113.947 84.924 112.711 89.0433 114.294 92.7127C114.945 94.222 116.003 95.5659 117.389 96.5148C118.859 97.5213 120.506 97.7828 122.26 97.9414C124.273 98.125 127.007 98.4336 127.083 100.941C127.145 102.961 125.636 104.742 125.402 106.729C124.988 110.235 128.962 113.207 132.393 112.15C132.753 112.037 132.599 111.488 132.236 111.601C130.417 112.161 128.488 111.499 127.219 110.167C125.849 108.729 125.758 107.026 126.386 105.246C126.923 103.723 127.909 102.108 127.626 100.443C127.423 99.2459 126.554 98.3519 125.402 97.9164C123.841 97.3271 122.104 97.4607 120.48 97.1665C118.641 96.832 117.051 95.7995 115.936 94.3604C113.417 91.1092 113.832 86.8505 115.941 83.5108C118.501 79.4569 123.032 77.1843 127.508 75.5894C127.862 75.4635 127.708 74.9136 127.351 75.0405Z" fill="#0F7869"/>
<path d="M133.884 121.396C133.855 121.585 133.827 121.779 133.798 121.973C131.967 122.112 130.104 121.913 128.342 121.381C126.313 120.766 124.415 119.698 122.94 118.214C121.095 116.355 119.92 114.006 118.721 111.739C117.488 109.405 116.143 107.028 114.008 105.336C111.512 103.36 108.49 103.107 105.499 104.156C102.695 105.143 100.095 106.823 97.644 108.44C95.284 109.999 93.027 111.699 90.885 113.527C88.574 115.501 86.408 117.623 84.396 119.873C84.463 119.511 84.528 119.152 84.593 118.794C86.791 116.403 89.167 114.163 91.704 112.096C93.8 110.386 96.002 108.795 98.295 107.335C100.652 105.835 103.129 104.287 105.837 103.446C108.314 102.678 110.921 102.751 113.179 104.07C115.265 105.291 116.813 107.237 118.013 109.248C119.389 111.552 120.424 114.042 122.016 116.223C123.512 118.277 125.545 119.828 128.005 120.673C129.883 121.32 131.906 121.563 133.884 121.396Z" fill="#0F7869"/>
<path d="M131.066 140.491C130.881 140.571 130.593 140.69 130.428 140.76C126.077 137.908 120.882 136.08 115.616 137.469C112.877 138.19 109.71 140.005 108.965 142.848C108.832 143.359 108.795 143.84 108.836 144.298C108.642 144.291 108.45 144.281 108.257 144.268C108.068 142.093 109.537 140.152 111.266 138.883C113.278 137.408 115.759 136.64 118.263 136.466C122.944 136.14 127.303 137.95 131.066 140.491Z" fill="#0F7869"/>
<path d="M102.992 143.749C102.807 143.723 102.622 143.693 102.439 143.665C102.408 143.66 102.376 143.656 102.345 143.65C104.033 141.136 105.682 137.867 105.055 134.941C104.628 132.949 102.868 131.751 100.805 131.672C98.792 131.594 96.855 132.47 95.132 133.379C92.337 134.859 89.858 136.838 87.813 139.167C87.668 139.096 87.522 139.024 87.379 138.95C87.344 138.931 87.309 138.914 87.274 138.894C87.526 138.606 87.784 138.324 88.048 138.045C90.658 135.298 94.004 132.879 97.675 131.626C101.016 130.486 105.192 131.371 105.702 135.264C106.078 138.146 104.671 141.218 102.992 143.749Z" fill="#0F7869"/>
<path d="M132.439 135.823C132.414 136.014 132.391 136.202 132.367 136.385C130.556 136.199 128.771 135.769 127.079 135.1C122.324 133.225 119.217 129.457 115.927 125.834C114.286 124.029 112.555 122.233 110.448 120.925C107.932 119.363 105.033 118.764 102.067 119.17C98.784 119.618 95.731 121.046 92.901 122.654C90.368 124.095 87.963 125.746 85.719 127.579C84.542 128.544 83.411 129.555 82.328 130.613C82.389 130.286 82.448 129.961 82.507 129.64C83.822 128.394 85.206 127.215 86.654 126.108C91.12 122.693 96.578 119.207 102.368 118.558C107.841 117.946 112.026 120.829 115.525 124.548C119.105 128.351 122.254 132.62 127.374 134.605C129 135.237 130.707 135.643 132.439 135.823Z" fill="#0F7869"/>
<path d="M133.047 89.0212C133.129 89.0212 133.212 88.9962 133.279 88.9395C133.424 88.8183 133.439 88.6059 133.313 88.4665C133.28 88.4309 130.04 84.8528 126.841 81.4372C126.712 81.2997 126.492 81.2901 126.35 81.4132C126.207 81.5372 126.195 81.7496 126.324 81.8871C129.52 85.297 132.756 88.8712 132.788 88.9068C132.857 88.9827 132.951 89.0202 133.047 89.0212Z" fill="#0F7869"/>
<path d="M126.331 84.1924L128.642 84.2135C128.834 84.2145 128.991 84.0655 128.993 83.8809C128.994 83.6954 128.84 83.5445 128.648 83.5425L126.337 83.5223C126.145 83.5204 125.988 83.6694 125.986 83.854C125.984 84.0395 126.139 84.1914 126.331 84.1924Z" fill="#0F7869"/>
<path d="M79.2976 130.763C71.0592 135.548 61.7672 138.783 51.2489 140.212L50.6182 137.595L50.4218 136.787L44.4674 112.106L44.271 111.298L43.7517 109.145L65.2083 101.916L66.0354 103.61L66.4022 104.359L77.7915 127.681L78.1573 128.433L79.2976 130.763Z" fill="#815F31"/>
<path d="M66.4643 104.507L44.5271 112.317L44.3286 111.509L66.0951 103.759L66.4643 104.507Z" fill="#3D3D3D"/>
<path d="M78.3292 128.537C67.7004 135.011 55.6914 137.143 50.7844 137.777L50.5868 136.968C55.3706 136.361 67.3802 134.261 77.9611 127.785L78.3292 128.537Z" fill="#3D3D3D"/>
<path d="M77.3417 125.724C75.5526 126.328 73.9483 126.582 73.5872 126.635L73.1666 123.9C75.7528 123.521 79.6272 122.255 80.1382 120.633C80.4243 119.723 79.7455 116.691 77.9248 112.863C76.0309 108.886 74.1538 106.656 73.4818 106.4C72.2602 105.937 68.4573 108.186 65.8079 110.493L63.8857 108.444C63.9533 108.386 65.5548 106.995 67.5493 105.725C70.5626 103.807 72.8481 103.186 74.5379 103.827C77.0101 104.765 79.5544 109.648 80.533 111.704C81.5125 113.763 83.7023 118.83 82.8835 121.429C82.1912 123.627 79.6179 124.959 77.3417 125.724Z" fill="#815F31"/>
<path d="M92.0652 117.489C92.0652 117.489 82.4183 124.98 80.1446 120.757C79.195 118.991 71.6825 113.315 75.6972 109.7C78.1644 107.478 89.1285 107.357 93.3933 107.259C93.3933 107.259 95.2556 114.919 92.0652 117.489Z" fill="#FFBE66"/>
<path d="M49.4762 126.056C49.3762 126.063 49.3552 126.061 49.3032 126.064L49.1803 126.063L48.9544 126.06C48.8086 126.054 48.6677 126.047 48.5299 126.036C48.2542 126.016 47.9867 125.986 47.7232 125.949C47.1963 125.875 46.6847 125.771 46.1814 125.643C45.1767 125.386 44.2142 125.026 43.3046 124.579C42.8493 124.355 42.4083 124.109 41.9834 123.843C41.8762 123.778 41.774 123.707 41.6688 123.64L41.5101 123.535L41.3424 123.419C41.1213 123.263 40.9162 123.105 40.722 122.946C39.9475 122.307 39.3269 121.67 38.7227 121.088C37.5283 119.917 36.3945 118.959 35.0683 118.494C34.4092 118.26 33.7029 118.144 32.9602 118.145C32.2175 118.146 31.4436 118.262 30.6697 118.463C30.1446 117.871 29.8967 117.158 29.927 116.321C30.8193 115.983 31.7748 115.724 32.7876 115.608C33.7974 115.494 34.8683 115.541 35.8951 115.784C36.925 116.022 37.8908 116.447 38.7478 116.948C39.6079 117.447 40.3681 118.018 41.0737 118.565C41.7783 119.11 42.4341 119.639 43.0494 120.037C43.3619 120.242 43.6253 120.376 43.9782 120.548C44.3113 120.708 44.6525 120.851 44.999 120.975C45.6899 121.224 46.4036 121.4 47.1171 121.5C47.4734 121.551 47.8299 121.58 48.1776 121.59C48.3515 121.595 48.5234 121.595 48.6874 121.588C48.7684 121.584 48.8484 121.578 48.9225 121.573L49.0256 121.562L49.0666 121.555C49.0686 121.554 49.1036 121.55 49.0586 121.552L49.4762 126.056Z" fill="#815F31"/>
<path d="M30.0373 116.54C30.0373 116.54 23.3216 119.095 21.3071 124.51C17.5776 134.355 28.7065 144.894 24.7599 153.452L34.2874 152.59C34.2874 152.59 36.2589 142.796 27.7605 132.118C23.9966 127.581 25.9127 120.535 30.7826 118.678C30.7826 118.678 29.8674 118.002 30.0373 116.54Z" fill="white"/>
<path d="M93.5639 107.351C93.8362 107.262 94.1565 107.173 94.4567 107.085C94.762 106.993 95.0693 106.905 95.3766 106.819C95.9911 106.646 96.6057 106.464 97.2212 106.298L100.893 105.27C103.321 104.577 105.74 103.895 107.99 103.166C109.106 102.802 110.195 102.426 111.089 102.051C111.306 101.956 111.518 101.867 111.695 101.782C111.874 101.697 112.032 101.615 112.125 101.555C112.154 101.54 112.171 101.526 112.186 101.516C112.201 101.503 112.22 101.493 112.218 101.488C112.217 101.484 112.234 101.474 112.214 101.479L112.196 101.485L112.188 101.488L112.213 101.471L112.403 101.335L112.603 101.185C113.682 100.336 114.927 98.9143 116.035 97.2381C117.158 95.562 118.189 93.6423 119.114 91.6241C120.042 89.604 120.871 87.4798 121.609 85.3138C122.356 83.1499 122.983 80.9317 123.528 78.7286C123.662 78.178 123.79 77.6275 123.906 77.0798C124.027 76.533 124.139 75.9891 124.24 75.451C124.441 74.3756 124.608 73.3156 124.718 72.3572L124.734 72.2053C125.176 68.3306 128.799 65.5321 132.827 65.9542C136.649 66.3555 139.461 69.5411 139.361 73.1727C139.313 74.7332 139.172 76.1809 138.977 77.5995C138.881 78.3079 138.774 79.0076 138.656 79.7015C138.533 80.3943 138.4 81.0805 138.26 81.7627C137.701 84.4937 136.96 87.1529 136.102 89.7934C135.231 92.4301 134.21 95.0364 132.988 97.619C131.764 100.203 130.341 102.763 128.551 105.285C126.744 107.793 124.594 110.318 121.49 112.532L120.893 112.939L120.271 113.333L120.193 113.382L120.08 113.447L119.853 113.577C119.695 113.669 119.566 113.733 119.424 113.807C119.281 113.883 119.155 113.945 119.026 114.006C118.895 114.068 118.766 114.129 118.647 114.181C118.154 114.404 117.711 114.577 117.285 114.735C116.856 114.893 116.456 115.028 116.058 115.152C114.486 115.639 113.056 115.975 111.641 116.268C108.824 116.841 106.11 117.229 103.393 117.516L101.361 117.717C100.683 117.774 100.006 117.823 99.3294 117.872C98.6544 117.924 97.9765 117.955 97.2966 117.988C96.9576 118.005 96.6177 118.019 96.2757 118.028L95.225 118.054C92.0977 118.133 89.4986 115.758 89.4194 112.749C89.3538 110.297 90.9822 108.182 93.2796 107.44L93.5639 107.351Z" fill="#FFBE66"/>
<path d="M52.521 145.701L51.503 150.181L51.173 151.644L50.47 154.734L47.658 167.119C47.383 168.329 46.269 169.193 44.98 169.193H22.795C21.507 169.193 20.392 168.329 20.118 167.119L17.306 154.734L16.603 151.644L16.272 150.181L15.255 145.701H52.521Z" fill="#D4963E"/>
<path d="M51.503 150.181L51.173 151.644H16.603L16.272 150.181H51.503Z" fill="#8C6A3A"/>
<path d="M50.47 154.734L50.139 156.197H17.637L17.306 154.734H50.47Z" fill="#8C6A3A"/>
<path d="M125.106 64.6667L118.308 91.3486C118.308 91.3486 130.902 97.4656 135.652 97.2796C135.652 97.2796 140.472 80.083 140.498 74.0978C140.523 68.1135 136.116 62.2134 131.052 61.0435C125.988 59.8737 125.106 64.6667 125.106 64.6667Z" fill="black"/>
<path d="M118.002 106.234C117.873 106.234 117.746 106.174 117.668 106.063C115.808 103.439 112.554 102.112 112.521 102.099C112.314 102.016 112.216 101.787 112.303 101.588C112.389 101.389 112.627 101.295 112.834 101.378C112.977 101.435 116.344 102.809 118.34 105.623C118.466 105.802 118.418 106.045 118.231 106.167C118.162 106.213 118.082 106.235 118.002 106.234Z" fill="#E1A95A"/>
<path d="M118.826 103.438C118.76 103.438 118.692 103.421 118.631 103.388C118.605 103.376 116.091 102.049 113.598 102.522C113.379 102.562 113.166 102.425 113.123 102.213C113.08 102.001 113.222 101.796 113.442 101.754C116.23 101.226 118.913 102.646 119.026 102.705C119.223 102.812 119.291 103.049 119.181 103.237C119.106 103.366 118.969 103.438 118.826 103.438Z" fill="#E1A95A"/>
</svg>
